DataType=double
version=3
OpenSimVersion=4.5-2023-11-26-efcdfd3eb
endheader
time	EMG01_right_gast_med	EMG02_right_glut_max	EMG03_left_gast_med	EMG04_left_glut_max	EMG05_right_glut_med	EMG06_right_bic_fem	EMG07_right_rect_fem	EMG08_right_vast_lat	EMG09_right_vast_med	EMG10_right_tens_fasc_lat	EMG11_left_glut_med	EMG12_left_bic_fem	EMG13_left_rect_fem	EMG14_left_vast_lat	EMG15_left_vast_med	EMG16_left_tens_fasc_lat
1.28	0.4430411528688894	0.03013540014349424	0.04537014800268812	0.06607060025377962	0.08702693537248375	0.04724996386143892	0.06869853748225359	0.01241298641514023	0.008279588011671024	0.08564493240147174	0.1398707741076464	0.1181016819826436	0.150920269474274	0.07230386403704835	0.04815398302837946	0.1608159978603374
1.29	0.4305107174339816	0.03575108126773921	0.04877837047263409	0.06627523425464242	0.0939703194973269	0.04646096857873039	0.07142067500555002	0.01348522755845892	0.009845202936591904	0.09161189572090545	0.1439631842428663	0.1219400962719545	0.1574087254278661	0.07597748379868509	0.05310384999592391	0.1644649516623574
1.3	0.416064416038064	0.04206289948694934	0.05221182886808191	0.06659447615385906	0.1008240328553895	0.04558972341225967	0.07394945353562209	0.01460103467042806	0.01152215023181931	0.09777080154727144	0.1476891251683437	0.1252731791887171	0.1633695473113276	0.07948335298737357	0.05815622151420214	0.1681221407884435
1.31	0.3998625519240387	0.04903169070625198	0.05567219652488722	0.06700867965147378	0.1075070596532263	0.04465274979131048	0.07625335739981136	0.01574558760593257	0.01328868638868427	0.1040607214792316	0.1510193899857873	0.128055169359942	0.1687406845503969	0.08278138642017645	0.0632603592679974	0.1717558117209845
1.32	0.3820861324152655	0.05660956020055436	0.05916020871381849	0.06749713189218806	0.1139386818592611	0.04366750063985923	0.07830384672180266	0.01690389242302336	0.0151219539772717	0.1104194356980105	0.1539290023246371	0.1302464577654238	0.1734663392714908	0.0858333559511488	0.06836406956179644	0.1753377676713362
1.33	0.3629333795273485	0.06473997292095204	0.06267554158495638	0.06803845238642756	0.1200396459406489	0.04265197627244771	0.08007568042169268	0.01806091785434214	0.01699816540098233	0.1167841959708551	0.1563976202948762	0.1318144891688789	0.1774978815015589	0.0886034842725781	0.07341433851377435	0.1788438450293374
1.34	0.3426159187456492	0.07335797627616816	0.06621673505983218	0.06861099514257478	0.1257333677102689	0.04162438785844881	0.08154715902235843	0.01920173507401026	0.01889280939999542	0.1230924761003289	0.1584098692914838	0.1327345492700018	0.1807946684655599	0.0910590076789132	0.07835799201191997	0.1822542130599632
1.35	0.3213547883793798	0.08239056731671604	0.06978115732031524	0.06919324452949971	0.1309471489876423	0.04060287320270121	0.08270029277636833	0.02031166123938955	0.02078088121540317	0.1292826937694121	0.1599555891994469	0.1329904014760726	0.183324743028484	0.09317069699293103	0.0831423720602826	0.1855534933953157
1.36	0.2993764043435413	0.09175721383102599	0.07336500674098013	0.0697641944268115	0.135613375785481	0.03960526753398207	0.0835209054747649	0.02137640712612718	0.02263713662529051	0.1352948888013275	0.1610299828044273	0.1325747392495022	0.1850653879784131	0.09491332802802856	0.0877160200686339	0.1887307025492393
1.37	0.2769085986956484	0.1013705357909713	0.07696334574220275	0.07030370039699763	0.1396706648366911	0.03864893008125619	0.08399868646659457	0.02238222872893261	0.0244363692252777	0.1410713445250825	0.1616336562389884	0.1314894262845999	0.1860035198111794	0.09626609472057672	0.09202935684743949	0.1917790261163293
1.38	0.254176831527816	0.1111371499225569	0.08057016087591296	0.07079279584439757	0.1430649243098309	0.03775062546287713	0.08412720338649099	0.02331608207190488	0.02615370938378156	0.1465571405126452	0.161772549217731	0.1297455084702919	0.1861359160827249	0.09721295801593886	0.09603534867100083	0.194695437774475
1.39	0.2314006574095834	0.1209586759872857	0.08417844525362327	0.07121396488449376	0.1457502964505824	0.03692645735819921	0.08390388639834019	0.02416577979531646	0.02776494228881289	0.1517006264459088	0.1614577607738241	0.1273629975082827	0.1854692796144858	0.09774292198490273	0.09969014879402389	0.1974801795760534
1.4	0.2087905103598492	0.1307328986972549	0.08778030297179996	0.07155136669483542	0.1476899546188363	0.03619185062138348	0.08332999216833917	0.02492014748233213	0.02924684148328452	0.1564538100224685	0.1607052820093128	0.1243704415180699	0.1840201467616579	0.09785022746757219	0.1029537042672504	0.2001361223896525
1.41	0.1865448556844745	0.140355074122171	0.0913670788300732	0.07179100847328108	0.1488567335782838	0.03556157692538648	0.08241055294829248	0.02556917727316421	0.03057751332403588	0.1607726590691153	0.1595356486091711	0.1208043085431309	0.1818146449887817	0.09753445471139828	0.1057903187125256	0.2026680280756932
1.42	0.1648477428112012	0.1497193641874369	0.09492951840264854	0.07192086645854362	0.1492335787414983	0.03504981810094516	0.08115431314290779	0.02610417610335558	0.03173674691696508	0.1646173286891667	0.1579735232373691	0.116708213953343	0.1788881000478533	0.09680052996388291	0.1081691625184473	0.205081739044208
1.43	0.1438667801545777	0.158720377769624	0.0984579627881107	0.07193095620748656	0.148813806955108	0.03467026040869982	0.07957365237002152	0.02651790578864642	0.03270636324220919	0.1679523333539781	0.1560472150551392	0.1121320244958567	0.1752844894660867	0.09565863506165397	0.1100647221120689	0.2073833252339775
1.44	0.1237515410262957	0.1672547921430684	0.1019425800418	0.07181335442058323	0.1476011781946265	0.0344362118954474	0.07768449050072308	0.02680471204917899	0.03347055629294776	0.1707466868805782	0.1537881437197841	0.1071308719351909	0.1710557403267765	0.0941240222888953	0.11145717941137	0.2095782216843322
1.45	0.104632398928594	0.1752230239648523	0.1053736325107532	0.07156217554657375	0.1456097837154918	0.0343607336739046	0.07550616699869925	0.02696063935832277	0.0340162180222733	0.1729740304560373	0.1512302580165547	0.101764107970917	0.1662608760399671	0.09221673898595624	0.1123327120771161	0.211670391503845
1.46	0.08661978138283265	0.1825309146600259	0.1087417763685123	0.07117350744879479	0.1428637610760451	0.03445677453492947	0.07306128468448533	0.02698352817555049	0.03433323778269546	0.1746127638285647	0.1484094216212809	0.09609422927907553	0.1609650261186303	0.08996126791253978	0.1126837056751277	0.2136615494367014
